# xmcd CD database file
#
# Track frame offsets:
#	150
#	17025
#	33825
#	50175
#	66150
#	85800
#	97725
#	117675
#	136050
#	148950
#	167550
#	183000
#	198300
#	216075
#	228450
#	247350
#
# Disc length: 3527 seconds
#
# Revision: 1
# Processed by: cddbd v1.5.1PL0 Copyright (c) Steve Scherf et al.
# Submitted via: freeDBTagger 0.8.2.0
#
DISCID=e50dc510
DTITLE=市井紗耶香 with 中澤裕子 - FOLK SONGS
DYEAR=2001
DGENRE=blues
TTITLE0=この広い野原いっぱい
TTITLE1=この広い野原いっぱい
TTITLE2=この広い野原いっぱい
TTITLE3=この広い野原いっぱい
TTITLE4=この広い野原いっぱい
TTITLE5=この広い野原いっぱい
TTITLE6=この広い野原いっぱい
TTITLE7=この広い野原いっぱい
TTITLE8=この広い野原いっぱい
TTITLE9=この広い野原いっぱい
TTITLE10=この広い野原いっぱい
TTITLE11=この広い野原いっぱい
TTITLE12=この広い野原いっぱい
TTITLE13=この広い野原いっぱい
TTITLE14=この広い野原いっぱい
TTITLE15=この広い野原いっぱい
EXTD=2001/11/29 ピッコロタウン
EXTT0=
EXTT1=
EXTT2=
EXTT3=
EXTT4=
EXTT5=
EXTT6=
EXTT7=
EXTT8=
EXTT9=
EXTT10=
EXTT11=
EXTT12=
EXTT13=
EXTT14=
EXTT15=
PLAYORDER=
